<svg xmlns="http://www.w3.org/2000/svg" version="1.1" xmlns:xlink="http://www.w3.org/1999/xlink" xmlns:svgjs="http://svgjs.dev/svgjs" width="1000" height="179" viewBox="0 0 1000 179"><g transform="matrix(1,0,0,1,-0.6060606060606233,0.4759862159507122)"><svg viewBox="0 0 396 71" data-background-color="#ffffff" preserveAspectRatio="xMidYMid meet" height="179" width="1000" xmlns="http://www.w3.org/2000/svg" xmlns:xlink="http://www.w3.org/1999/xlink"><g id="tight-bounds" transform="matrix(1,0,0,1,0.2400000000000091,-0.1887990018575465)"><svg viewBox="0 0 395.52 71.37759800371511" height="71.37759800371511" width="395.52"><g><svg viewBox="0 0 463.2547434051245 83.60136237885611" height="71.37759800371511" width="395.52"><g><svg viewBox="0 0 463.2547434051245 83.60136237885611" height="83.60136237885611" width="463.2547434051245"><g><svg viewBox="0 0 463.2547434051245 83.60136237885611" height="83.60136237885611" width="463.2547434051245"><g><svg viewBox="0 0 463.2547434051245 55.01199999999999" height="55.01199999999999" width="463.2547434051245"><g><svg><g></g><g></g></svg></g><g><svg><g><svg></svg></g><g></g></svg></g><g id="text-0"><svg viewBox="0 0 463.2547434051245 55.01199999999999" height="55.01199999999999" width="463.2547434051245"><g transform="matrix(1,0,0,1,0,1.3939999999999948)"><svg width="395.52" viewBox="4.5 -33.400001525878906 257.4800109863281 34" height="52.224000000000004" data-palette-color="#2b2b2b"><path d="M8.65 0L4.5 0 4.5-32.8 23.4-32.8 23.4-29.3 8.65-29.3 8.65-18.2 21.15-18.2 21.15-14.7 8.65-14.7 8.65 0ZM48.6 0L29.2 0 29.2-32.8 48.1-32.8 48.1-29.3 33.35-29.3 33.35-19 45.8-19 45.8-15.45 33.35-15.45 33.35-3.55 48.6-3.55 48.6 0ZM64.65 0.6L64.65 0.6Q61.2 0.6 58.25-0.7 55.3-2 53.15-4.25L53.15-4.25 55.65-7.15Q57.4-5.3 59.77-4.17 62.15-3.05 64.7-3.05L64.7-3.05Q67.95-3.05 69.75-4.53 71.55-6 71.55-8.4L71.55-8.4Q71.55-9.65 71.12-10.53 70.7-11.4 69.97-12.03 69.25-12.65 68.25-13.15 67.25-13.65 66.09-14.2L66.09-14.2 61.4-16.25Q60.25-16.75 59.05-17.45 57.84-18.15 56.9-19.15 55.95-20.15 55.34-21.53 54.75-22.9 54.75-24.7L54.75-24.7Q54.75-26.55 55.52-28.15 56.3-29.75 57.67-30.93 59.05-32.1 60.92-32.75 62.8-33.4 65.05-33.4L65.05-33.4Q68-33.4 70.5-32.27 73-31.15 74.75-29.35L74.75-29.35 72.5-26.65Q71-28.1 69.17-28.93 67.34-29.75 65.05-29.75L65.05-29.75Q62.3-29.75 60.62-28.48 58.95-27.2 58.95-24.95L58.95-24.95Q58.95-23.75 59.42-22.93 59.9-22.1 60.7-21.48 61.5-20.85 62.45-20.38 63.4-19.9 64.4-19.5L64.4-19.5 69.05-17.5Q70.45-16.9 71.7-16.13 72.95-15.35 73.84-14.33 74.75-13.3 75.27-11.93 75.8-10.55 75.8-8.75L75.8-8.75Q75.8-6.8 75.02-5.1 74.25-3.4 72.8-2.13 71.34-0.85 69.3-0.13 67.25 0.6 64.65 0.6ZM92.24 0L88.04 0 88.04-29.3 78.14-29.3 78.14-32.8 102.14-32.8 102.14-29.3 92.24-29.3 92.24 0ZM112.19 0L108.04 0 108.04-32.8 112.19-32.8 112.19 0ZM134.09 0.6L134.09 0.6Q130.84 0.6 128.11-0.55 125.39-1.7 123.44-3.88 121.49-6.05 120.39-9.22 119.29-12.4 119.29-16.4L119.29-16.4Q119.29-20.35 120.41-23.5 121.54-26.65 123.54-28.85 125.54-31.05 128.31-32.23 131.09-33.4 134.34-33.4L134.34-33.4Q136.04-33.4 137.46-33.05 138.89-32.7 140.06-32.13 141.24-31.55 142.16-30.83 143.09-30.1 143.79-29.35L143.79-29.35 141.49-26.65Q140.24-27.95 138.59-28.85 136.94-29.75 134.44-29.75L134.44-29.75Q131.94-29.75 129.94-28.83 127.94-27.9 126.54-26.18 125.14-24.45 124.36-22 123.59-19.55 123.59-16.5L123.59-16.5Q123.59-13.4 124.31-10.93 125.04-8.45 126.41-6.7 127.79-4.95 129.81-4 131.84-3.05 134.49-3.05L134.49-3.05Q136.24-3.05 137.81-3.58 139.39-4.1 140.39-5L140.39-5 140.39-13.55 133.44-13.55 133.44-17 144.19-17 144.19-3.2Q142.59-1.55 139.99-0.48 137.39 0.6 134.09 0.6ZM157.49-18.35L157.49-18.35 155.94-13.35 165.79-13.35 164.24-18.35Q163.34-21.1 162.54-23.83 161.74-26.55 160.94-29.4L160.94-29.4 160.74-29.4Q159.99-26.55 159.19-23.83 158.39-21.1 157.49-18.35ZM151.74 0L147.49 0 158.59-32.8 163.29-32.8 174.39 0 169.94 0 166.84-10 154.89-10 151.74 0ZM182.78 0L179.03 0 179.03-32.8 184.03-32.8 190.33-15.3Q190.93-13.6 191.51-11.88 192.08-10.15 192.68-8.45L192.68-8.45 192.88-8.45Q193.48-10.15 194.01-11.88 194.53-13.6 195.13-15.3L195.13-15.3 201.33-32.8 206.38-32.8 206.38 0 202.48 0 202.48-18.05Q202.48-20.25 202.68-22.9 202.88-25.55 203.03-27.75L203.03-27.75 202.83-27.75 200.23-20.3 194.03-3.3 191.28-3.3 185.08-20.3 182.48-27.75 182.28-27.75Q182.43-25.55 182.61-22.9 182.78-20.25 182.78-18.05L182.78-18.05 182.78 0ZM234.78 0L215.38 0 215.38-32.8 234.28-32.8 234.28-29.3 219.53-29.3 219.53-19 231.98-19 231.98-15.45 219.53-15.45 219.53-3.55 234.78-3.55 234.78 0ZM250.83 0.6L250.83 0.6Q247.38 0.6 244.43-0.7 241.48-2 239.33-4.25L239.33-4.25 241.83-7.15Q243.58-5.3 245.95-4.17 248.33-3.05 250.88-3.05L250.88-3.05Q254.13-3.05 255.93-4.53 257.73-6 257.73-8.4L257.73-8.4Q257.73-9.65 257.3-10.53 256.88-11.4 256.15-12.03 255.43-12.65 254.43-13.15 253.43-13.65 252.28-14.2L252.28-14.2 247.58-16.25Q246.43-16.75 245.23-17.45 244.03-18.15 243.08-19.15 242.13-20.15 241.53-21.53 240.93-22.9 240.93-24.7L240.93-24.7Q240.93-26.55 241.7-28.15 242.48-29.75 243.85-30.93 245.23-32.1 247.1-32.75 248.98-33.4 251.23-33.4L251.23-33.4Q254.18-33.4 256.68-32.27 259.18-31.15 260.93-29.35L260.93-29.35 258.68-26.65Q257.18-28.1 255.35-28.93 253.53-29.75 251.23-29.75L251.23-29.75Q248.48-29.75 246.8-28.48 245.13-27.2 245.13-24.95L245.13-24.95Q245.13-23.75 245.6-22.93 246.08-22.1 246.88-21.48 247.68-20.85 248.63-20.38 249.58-19.9 250.58-19.5L250.58-19.5 255.23-17.5Q256.63-16.9 257.88-16.13 259.13-15.35 260.03-14.33 260.93-13.3 261.45-11.93 261.98-10.55 261.98-8.75L261.98-8.75Q261.98-6.8 261.2-5.1 260.43-3.4 258.98-2.13 257.53-0.85 255.48-0.13 253.43 0.6 250.83 0.6Z" opacity="1" transform="matrix(1,0,0,1,0,0)" fill="#2b2b2b" class="undefined-text-0" data-fill-palette-color="primary"></path></svg></g><g><svg xmlns="http://www.w3.org/2000/svg" xmlns:xlink="http://www.w3.org/1999/xlink" version="1.1" x="408.508" y="0" viewBox="5.214000225067139 5 89.57200622558594 90.00599670410156" enable-background="new 0 0 100 100" xml:space="preserve" height="55.01199999999999" width="54.74674340512454" class="icon-s-0" data-fill-palette-color="accent" id="s-0"><path d="M92.854 20.7l-7.541 22.31c-0.154 0.449-0.643 0.691-1.091 0.539L69.42 38.497c-0.216-0.074-0.39-0.229-0.491-0.437-0.103-0.205-0.117-0.438-0.044-0.657l0.002-0.003 7.54-22.306c0.074-0.22 0.227-0.395 0.434-0.496 0.204-0.103 0.437-0.119 0.656-0.043l14.8 5.052C92.764 19.76 93.004 20.249 92.854 20.7zM64.569 36.064h2.453l7.329-21.677c0.264-0.777 0.808-1.403 1.539-1.764 0.73-0.363 1.559-0.417 2.329-0.152l2.837 0.968v-1.798c0-0.474-0.383-0.862-0.856-0.862H64.569c-0.474 0-0.858 0.388-0.858 0.862v23.563C63.711 35.678 64.096 36.064 64.569 36.064zM68.717 40.582c-0.771-0.262-1.396-0.812-1.755-1.545-0.12-0.248-0.204-0.505-0.255-0.77h-2.138c-1.681 0-3.05-1.375-3.05-3.062V16.407c-8.033 2.922-9.144 3.328-9.343 3.382l0.092-0.017c-0.212 0.079-0.387 0.237-0.482 0.446-0.099 0.207-0.108 0.443-0.029 0.659l7.979 22.154c0.079 0.216 0.236 0.389 0.444 0.488 0.207 0.096 0.44 0.106 0.656 0.029l8.021-2.917C68.772 40.599 68.717 40.582 68.717 40.582zM8.06 63.499l11.835-9.781c1.109-1.027 3.124-1.625 4.826-1.655 0.426-0.027 0.853 0 1.192 0.057l13.452 2.424c0.88 0.171 2.158 0.914 2.385 2.053v0.628c-0.084 0.484-0.397 1.054-0.993 1.653l-9.651 9.583c-2.184 2.083-4.143 2.966-6.385 2.795-0.541-0.028-1.107-0.142-1.702-0.313L8.26 66.893C6.415 66.379 6.754 64.612 8.06 63.499zM20.975 62.53c0.482 0.74 2.185 0.854 3.746 0.542 0.482-0.085 0.965-0.2 1.391-0.4 1.759-0.656 3.292-2.225 2.044-3.42-0.768-0.714-2.185-0.685-3.435-0.429-0.795 0.199-1.504 0.429-1.988 0.656C21.512 60.076 20.32 61.533 20.975 62.53zM27.445 92.903l-0.767-0.315-3.546-1.424-7.098-2.853h-0.027l-0.937-0.371c-1.164-0.456-2.328-1.996-3.038-3.422-0.084-0.199-0.141-0.341-0.227-0.514L6.869 71.571c-0.369-0.885-1.76-4.535 1.618-3.452l3.546 1.027 3.975 1.084h0.027l6.188 1.74c0.311 0.084 0.624 0.199 0.909 0.285 1.785 0.54 2.808 1.056 3.546 2.023 0.597 0.827 0.995 1.968 1.504 3.737l3.776 12.947c0.056 0.229 0.084 0.429 0.084 0.601v0.285C31.929 93.702 28.978 93.529 27.445 92.903zM12.033 75.82c0.85 0.543 1.816 0.884 2.385 0.399 0.964-0.826-0.056-2.481-1.078-3.736-0.397-0.483-0.824-0.912-1.307-1.227-0.794-0.57-1.674-0.827-2.355-0.37-1.051 0.685 0.144 2.909 0.938 3.792C10.928 75.021 11.466 75.478 12.033 75.82zM17.087 83.15c-0.313-0.343-0.682-0.658-1.052-0.914 0 0 0 0-0.027 0-0.796-0.571-1.619-0.885-2.271-0.429-0.938 0.628 0.312 2.653 1.135 3.422 0.285 0.258 0.712 0.628 1.137 0.913 0.027 0 0.027 0 0.027 0 0.795 0.542 1.73 0.913 2.299 0.459C19.214 85.915 18.165 84.206 17.087 83.15zM23.133 79.584c0.965 0.541 2.042 0.826 2.694 0.284 1.078-0.913-0.027-2.595-1.221-4.049-0.427-0.514-0.937-0.97-1.474-1.253-0.909-0.544-1.875-0.714-2.643-0.202-1.219 0.77 0.172 2.937 0.995 3.907C21.826 78.699 22.448 79.212 23.133 79.584zM27.842 86.857c-0.312-0.255-0.708-0.57-1.163-0.828-0.879-0.484-1.818-0.799-2.499-0.313-1.077 0.685 0.284 2.737 1.109 3.564 0.341 0.286 0.822 0.685 1.39 1.027 0.907 0.515 1.959 0.884 2.555 0.427C30.188 90.005 28.751 87.655 27.842 86.857zM48.079 75.021v0.543c-0.027 1.911-0.682 3.537-2.242 5.417l-1.646 1.939-2.215 2.652-2.667 3.196-2.1 2.48c-0.2 0.257-0.397 0.486-0.598 0.627-0.993 0.883-2.072 0.571-2.837-0.371-0.426-0.542-0.796-1.227-1.022-2.081l-3.634-12.806c-0.169-0.57-0.254-1.141-0.284-1.712v-0.483c0.058-1.482 0.682-2.996 2.045-4.393l2.896-2.824 2.837-2.821 2.697-2.683 2.214-2.195c0.143-0.171 0.312-0.285 0.453-0.428 0.795-0.571 1.561-0.656 2.215-0.315 0.707 0.374 1.248 1.171 1.446 2.31l2.157 11.552C47.965 73.479 48.079 74.279 48.079 75.021zM35.705 75.393c0.537-1.74 0.708-4.192-0.711-4.822-0.425-0.169-0.822-0.112-1.219 0.115-0.965 0.515-1.789 1.94-2.072 2.825-0.369 1.196-0.568 3.905 0.794 4.448 0.425 0.141 0.853 0.085 1.278-0.058C34.598 77.502 35.335 76.533 35.705 75.393zM37.775 82.178c-0.397-0.197-0.766-0.142-1.163 0.115-0.794 0.543-1.477 1.826-1.789 2.652-0.425 1.168-0.595 3.652 0.541 4.05 0.426 0.115 0.851 0.03 1.248-0.227 0.682-0.399 1.278-1.285 1.675-2.339C38.911 84.747 39.025 82.808 37.775 82.178zM40.302 72.083c-0.341-0.169-0.681-0.113-0.992 0.086-0.852 0.484-1.534 1.938-1.846 2.822-0.367 1.17-0.397 3.68 0.738 3.995 0.368 0.086 0.766 0.027 1.107-0.173 0.711-0.425 1.333-1.338 1.701-2.48C41.551 74.621 41.581 72.653 40.302 72.083zM41.977 68.918c0.795-0.37 1.42-1.426 1.761-2.681 0.481-1.74 0.255-3.737-0.937-4.221-0.283-0.114-0.569-0.084-0.824 0.058-0.853 0.456-1.561 2.024-1.814 2.965-0.343 1.198-0.229 3.765 0.936 4.021C41.411 69.117 41.693 69.06 41.977 68.918zM45.271 73.424c-0.343-0.171-0.711-0.057-1.079 0.228-0.711 0.571-1.42 1.825-1.646 2.566-0.341 1.112-0.368 3.366 0.651 3.65 0.341 0.085 0.682 0.03 0.995-0.143 0.68-0.37 1.27-1.247 1.589-2.28C46.264 75.876 46.264 73.938 45.271 73.424zM50 5v45.003H5.214V5H50zM42.293 28.466c0-10.663-8.643-19.356-19.283-19.356 1.08 0.925 1.602 2.132 1.602 3.582 0 1.046-0.08 1.812-0.76 2.656-1.041 1.247-2.284 2.334-3.404 3.5-2.003 2.092-4.004 4.226-6.008 6.319-0.96 1.007-1.521 1.971-1.521 3.379 0 2.535 2.083 4.59 4.566 4.59 2.683 0 6.166-3.624 8.449-3.624 1.16 0 2.16 0.967 2.16 2.132 0 0.563-0.241 1.167-0.681 1.53l-7.406 6.238c-1.521 1.287-2.362 3.523-2.362 5.454h23.366v-2.092c0-1.512 0.561-3.12 0.762-4.652C42.175 34.947 42.293 31.686 42.293 28.466zM25.013 18.487c-0.842 0-1.562 0.725-1.562 1.568 0 0.846 0.72 1.57 1.562 1.57 0.882 0 1.602-0.724 1.602-1.57C26.614 19.212 25.895 18.487 25.013 18.487zM94.786 50.003v45.003H50V50.003H94.786zM59.178 61.752c0 3.855 1.473 5.844 5.434 5.844h14.915c3.963 0 5.475-1.988 5.475-5.844v-5.335H79.84v5.298h-5.155v-5.298h-5.231v5.298h-5.152v-5.298h-5.123V61.752zM63.872 69.389v14.367h16.55V69.389H63.872zM85.892 87.958l-5.394-2.222H63.911l-4.851 2.222v2.023h26.831V87.958z" fill="#f4a424" data-fill-palette-color="accent"></path></svg></g></svg></g></svg></g><g transform="matrix(1,0,0,1,88.48165599037878,67.34083302399999)"><svg viewBox="0 0 286.2914314243669 16.260529354856118" height="16.260529354856118" width="286.2914314243669"><g transform="matrix(1,0,0,1,0,0)"><svg width="286.2914314243669" viewBox="0.8500000238418579 -25.350000381469727 458.6000061035156 26.05000114440918" height="16.260529354856118" data-palette-color="#f4a424"><path d="M5.5 0.2L5.85-1.8Q7.85-1.95 8.68-2.3 9.5-2.65 9.73-3.48 9.95-4.3 9.95-6.35L9.95-6.35 9.95-22.9Q6.8-22.8 5.7-22.55 4.6-22.3 4.08-21.38 3.55-20.45 3.2-17.9L3.2-17.9 0.85-17.75Q0.95-18.4 1.18-20.63 1.4-22.85 1.45-25L1.45-25 1.85-25.35 5.4-24.95 18.15-24.95 21.8-25.35 22.2-25Q22.25-22.8 22.45-20.65 22.65-18.5 22.75-17.9L22.75-17.9 20.45-17.75Q20.05-20.35 19.53-21.33 19-22.3 17.98-22.55 16.95-22.8 14.05-22.9L14.05-22.9Q13.8-20.5 13.6-14.93 13.4-9.35 13.4-4.65L13.4-4.65Q13.4-3.2 13.95-2.6 14.5-2 15.75-2L15.75-2Q16.65-2 17.23-2.05 17.8-2.1 17.95-2.1L17.95-2.1 18.1-1.95 17.75 0.15Q17.05 0.15 15.15 0.08 13.25 0 11.45 0L11.45 0Q9.65 0 7.9 0.08 6.15 0.15 5.5 0.2L5.5 0.2ZM36.65 0.35L36.5 0.1 36.65-1.7Q38.75-1.85 39.47-2.15 40.2-2.45 40.2-3.15L40.2-3.15Q40.2-3.95 39.85-4.85L39.85-4.85 38.65-8.7Q37.65-8.75 34.5-8.75L34.5-8.75Q33.05-8.75 30.2-8.45L30.2-8.45 28.8-4.75Q28.45-3.6 28.45-3.35L28.45-3.35Q28.45-2.55 29-2.2 29.55-1.85 30.8-1.85L30.8-1.85 32.95-1.85 33.1-1.65 32.8 0.25Q32.3 0.2 30.52 0.1 28.75 0 27.05 0L27.05 0Q25.45 0 24.17 0.05 22.9 0.1 22.45 0.1L22.45 0.1 22.75-1.95Q23.85-2.1 24.5-2.73 25.15-3.35 25.8-4.85L25.8-4.85 33.65-24.7 37.2-25.35 37.55-25.3Q37.55-25.1 39.82-17.4 42.1-9.7 43.9-4.65L43.9-4.65Q44.4-3.2 45.17-2.63 45.95-2.05 47.65-1.9L47.65-1.9 47.75-1.7 47.5 0.1Q47 0.1 45.65 0.05 44.3 0 42.95 0L42.95 0Q40.9 0 39.05 0.15 37.2 0.3 36.65 0.35L36.65 0.35ZM31-10.8L34.4-10.8Q36.15-10.8 38.05-11L38.05-11 35-20.7 34.65-20.7 31-10.8ZM55.65 0Q54.35 0 52.75 0.18 51.15 0.35 50.65 0.45L50.65 0.45 50.9-1.6Q52.75-1.95 53.4-2.63 54.05-3.3 54.05-4.9L54.05-4.9 54.1-20.9Q54.1-22.1 53.8-22.53 53.5-22.95 52.65-22.95L52.65-22.95 51.25-22.9 51.1-23.1 51.4-25Q51.95-25 53.4-24.95 54.85-24.9 56.25-24.9L56.25-24.9Q57.7-24.9 59.27-24.98 60.85-25.05 61.45-25.1L61.45-25.1Q65.4-25.1 67.55-23.55 69.7-22 69.7-19.1L69.7-19.1Q69.7-17.1 68.42-15.5 67.15-13.9 65.05-13.1L65.05-13.1Q67.8-12.55 69.52-11.03 71.25-9.5 71.25-7.25L71.25-7.25Q71.25-5.15 69.92-3.4 68.6-1.65 66.32-0.63 64.05 0.4 61.35 0.4L61.35 0.4Q60.55 0.4 58.95 0.2L58.95 0.2Q56.75 0 55.65 0L55.65 0ZM57.85-13.9Q58.45-13.85 59.82-13.75 61.2-13.65 62.15-13.6L62.15-13.6Q62.15-13.5 63.15-14 64.15-14.5 64.95-15.55 65.75-16.6 65.75-18.35L65.75-18.35Q65.75-20.7 64.07-21.8 62.4-22.9 58.9-22.9L58.9-22.9Q58.5-22.9 58.37-22.73 58.25-22.55 58.2-22.05L58.2-22.05Q57.95-18.9 57.85-13.9L57.85-13.9ZM57.75-11.4L57.6-4.6Q57.6-3.2 58.6-2.63 59.6-2.05 62.05-2.05L62.05-2.05Q64.4-2.05 65.72-3.25 67.05-4.45 67.05-6.55L67.05-6.55Q67.05-8.5 65.75-9.75 64.45-11 61.9-11.45L61.9-11.45 57.75-11.4ZM76.89 0.4L77.19-1.7Q78.79-1.95 79.37-2.63 79.94-3.3 79.94-5L79.94-5 79.99-20.85Q79.99-22.1 79.69-22.53 79.39-22.95 78.49-22.95L78.49-22.95 77.14-22.9 76.99-23.1 77.29-25Q77.54-25 78.79-24.95 80.04-24.9 82.14-24.9L82.14-24.9Q83.24-24.9 84.87-25.05 86.49-25.2 86.99-25.25L86.99-25.25 86.79-23.15Q85.44-23 84.89-22.68 84.34-22.35 84.24-21.85 84.14-21.35 83.99-19.8L83.99-19.8Q83.49-13.1 83.49-4.95L83.49-4.95Q83.49-3.7 83.72-3.13 83.94-2.55 84.62-2.35 85.29-2.15 86.74-2.15L86.74-2.15Q89.14-2.15 90.27-2.55 91.39-2.95 91.97-4.13 92.54-5.3 92.99-7.85L92.99-7.85 95.19-8.1 95.34-7.8Q95.24-7.15 94.87-4.83 94.49-2.5 94.19 0.05L94.19 0.05 93.94 0.35Q92.79 0.3 89.07 0.15 85.34 0 82.79 0L82.79 0Q80.79 0 79.07 0.18 77.34 0.35 76.89 0.4L76.89 0.4ZM97.64 0.4L97.89-1.7Q99.74-1.9 100.39-2.6 101.04-3.3 101.04-5L101.04-5 101.09-20.85Q101.09-22.1 100.79-22.53 100.49-22.95 99.59-22.95L99.59-22.95 98.24-22.9 98.14-23.1 98.44-25Q99.04-25 100.79-24.95 102.54-24.9 104.59-24.9L104.59-24.9Q112.94-24.9 116.94-25.35L116.94-25.35 117.09-25.1Q116.99-24.55 116.64-22.6 116.29-20.65 116.14-18.4L116.14-18.4 113.74-18.2Q113.74-18.4 113.79-18.88 113.84-19.35 113.84-19.85L113.84-19.85Q113.84-21.15 113.47-21.68 113.09-22.2 111.92-22.38 110.74-22.55 107.84-22.55L107.84-22.55Q106.49-22.55 105.99-22.48 105.49-22.4 105.34-22.13 105.19-21.85 105.14-21.1L105.14-21.1 104.84-14 108.94-13.95Q109.84-13.95 111.59-14.13 113.34-14.3 113.89-14.35L113.89-14.35 114.09-14.1 113.49-11.5Q112.94-11.5 111.32-11.55 109.69-11.6 107.89-11.6L107.89-11.6Q106.49-11.6 104.74-11.35L104.74-11.35Q104.59-7.55 104.59-4.5L104.59-4.5Q104.59-3.35 104.77-2.9 104.94-2.45 105.57-2.3 106.19-2.15 107.64-2.15L107.64-2.15Q110.89-2.15 112.29-2.45 113.69-2.75 114.27-3.68 114.84-4.6 115.19-6.85L115.19-6.85 117.39-7.05 117.59-6.8Q117.44-6.25 117.07-4.23 116.69-2.2 116.49 0L116.49 0 116.19 0.25Q114.84 0.2 110.59 0.1 106.34 0 103.69 0L103.69 0Q101.64 0 99.89 0.18 98.14 0.35 97.64 0.4L97.64 0.4ZM144.34 0.45Q138.84 0.45 135.56-2.83 132.29-6.1 132.29-11.65L132.29-11.65Q132.29-15.75 134.09-18.85 135.89-21.95 139.16-23.65 142.44-25.35 146.74-25.35L146.74-25.35Q148.29-25.35 150.06-25.15 151.84-24.95 153.11-24.7 154.39-24.45 154.74-24.4L154.74-24.4 154.94-24.1Q154.89-23.85 154.66-22.93 154.44-22 154.21-20.53 153.99-19.05 153.89-17.4L153.89-17.4 151.44-17.2Q151.44-17.4 151.49-17.98 151.54-18.55 151.54-19.3L151.54-19.3Q151.54-21.05 150.19-21.83 148.84-22.6 145.79-22.6L145.79-22.6Q141.34-22.6 138.96-20.13 136.59-17.65 136.59-12.95L136.59-12.95Q136.59-7.9 138.94-4.98 141.29-2.05 145.29-2.05L145.29-2.05Q146.69-2.05 147.84-2.35 148.99-2.65 149.66-2.95 150.34-3.25 150.49-3.35L150.49-3.35 150.49-7.75Q150.49-9 150.06-9.4 149.64-9.8 148.34-9.8L148.34-9.8 145.69-9.8 145.59-10 145.99-12.2Q146.19-12.2 147.86-12.15 149.54-12.1 151.29-12.1L151.29-12.1Q152.44-12.1 153.56-12.18 154.69-12.25 154.99-12.3L154.99-12.3 155.19-11.2Q154.39-10.6 154.11-9.35 153.84-8.1 153.84-5.05L153.84-5.05Q153.84-2.8 154.09-1.65L154.09-1.65 153.84-1.25Q153.49-1.1 152.21-0.7 150.94-0.3 148.84 0.08 146.74 0.45 144.34 0.45L144.34 0.45ZM172.73 0.35L172.58 0.1 172.73-1.7Q174.83-1.85 175.56-2.15 176.28-2.45 176.28-3.15L176.28-3.15Q176.28-3.95 175.93-4.85L175.93-4.85 174.73-8.7Q173.73-8.75 170.58-8.75L170.58-8.75Q169.13-8.75 166.28-8.45L166.28-8.45 164.88-4.75Q164.53-3.6 164.53-3.35L164.53-3.35Q164.53-2.55 165.08-2.2 165.63-1.85 166.88-1.85L166.88-1.85 169.03-1.85 169.18-1.65 168.88 0.25Q168.38 0.2 166.61 0.1 164.83 0 163.13 0L163.13 0Q161.53 0 160.26 0.05 158.98 0.1 158.53 0.1L158.53 0.1 158.83-1.95Q159.93-2.1 160.58-2.73 161.23-3.35 161.88-4.85L161.88-4.85 169.73-24.7 173.28-25.35 173.63-25.3Q173.63-25.1 175.91-17.4 178.18-9.7 179.98-4.65L179.98-4.65Q180.48-3.2 181.26-2.63 182.03-2.05 183.73-1.9L183.73-1.9 183.83-1.7 183.58 0.1Q183.08 0.1 181.73 0.05 180.38 0 179.03 0L179.03 0Q176.98 0 175.13 0.15 173.28 0.3 172.73 0.35L172.73 0.35ZM167.08-10.8L170.48-10.8Q172.23-10.8 174.13-11L174.13-11 171.08-20.7 170.73-20.7 167.08-10.8ZM200.58 0.7Q195.53-13 193.03-19.35L193.03-19.35 192.78-19.35Q192.58-16.95 192.06-10.4 191.53-3.85 191.53-3.2L191.53-3.2Q191.53-2.55 191.83-2.27 192.13-2 192.83-2L192.83-2 194.43-2 194.53-1.85 194.18 0.15Q193.73 0.15 192.46 0.08 191.18 0 189.93 0L189.93 0Q188.93 0 187.78 0.13 186.63 0.25 186.28 0.3L186.28 0.3 186.48-1.75Q187.78-1.9 188.33-2.53 188.88-3.15 189.08-4.7L189.08-4.7Q189.48-8.1 190.16-14.25 190.83-20.4 190.83-21.15L190.83-21.15Q190.83-22.15 190.06-22.63 189.28-23.1 187.38-23.2L187.38-23.2 187.23-23.45 187.58-25.1Q188.13-25.05 189.53-24.98 190.93-24.9 192.23-24.9L192.23-24.9Q193.33-24.9 194.26-24.95 195.18-25 195.48-25.05L195.48-25.05Q196.98-20.4 198.41-16.32 199.83-12.25 200.76-9.83 201.68-7.4 201.93-6.8L201.93-6.8 202.18-6.8Q202.73-8.2 204.66-13.35 206.58-18.5 208.83-24.95L208.83-24.95Q209.13-25 209.61-24.98 210.08-24.95 210.53-24.95L210.53-24.95Q211.08-24.9 212.13-24.9L212.13-24.9Q212.93-24.9 214.46-25 215.98-25.1 216.48-25.15L216.48-25.15 216.58-25 216.33-23.25Q214.58-23.05 213.88-22.58 213.18-22.1 213.18-21.1L213.18-21.1Q213.18-20.1 213.53-14.75 213.88-9.4 214.23-5.65L214.23-5.65Q214.48-3.4 214.88-2.7 215.28-2 216.23-2L216.23-2 217.38-2.05 217.48-1.9 217.13 0.1Q216.73 0.1 215.58 0.05 214.43 0 213.13 0L213.13 0Q211.83 0 210.18 0.15 208.53 0.3 208.43 0.3L208.43 0.3 208.63-1.75Q209.93-1.9 210.48-2.35 211.03-2.8 211.03-3.7L211.03-3.7Q211.03-4.6 210.51-10.85 209.98-17.1 209.78-19.35L209.78-19.35 209.53-19.35Q206.58-11.8 202.03 0.4L202.03 0.4 200.58 0.7ZM222.48 0.4L222.73-1.7Q224.58-1.9 225.23-2.6 225.88-3.3 225.88-5L225.88-5 225.93-20.85Q225.93-22.1 225.63-22.53 225.33-22.95 224.43-22.95L224.43-22.95 223.08-22.9 222.98-23.1 223.28-25Q223.88-25 225.63-24.95 227.38-24.9 229.43-24.9L229.43-24.9Q237.78-24.9 241.78-25.35L241.78-25.35 241.93-25.1Q241.83-24.55 241.48-22.6 241.13-20.65 240.98-18.4L240.98-18.4 238.58-18.2Q238.58-18.4 238.63-18.88 238.68-19.35 238.68-19.85L238.68-19.85Q238.68-21.15 238.3-21.68 237.93-22.2 236.75-22.38 235.58-22.55 232.68-22.55L232.68-22.55Q231.33-22.55 230.83-22.48 230.33-22.4 230.18-22.13 230.03-21.85 229.98-21.1L229.98-21.1 229.68-14 233.78-13.95Q234.68-13.95 236.43-14.13 238.18-14.3 238.73-14.35L238.73-14.35 238.93-14.1 238.33-11.5Q237.78-11.5 236.15-11.55 234.53-11.6 232.73-11.6L232.73-11.6Q231.33-11.6 229.58-11.35L229.58-11.35Q229.43-7.55 229.43-4.5L229.43-4.5Q229.43-3.35 229.6-2.9 229.78-2.45 230.4-2.3 231.03-2.15 232.48-2.15L232.48-2.15Q235.73-2.15 237.13-2.45 238.53-2.75 239.1-3.68 239.68-4.6 240.03-6.85L240.03-6.85 242.23-7.05 242.43-6.8Q242.28-6.25 241.9-4.23 241.53-2.2 241.33 0L241.33 0 241.03 0.25Q239.68 0.2 235.43 0.1 231.18 0 228.53 0L228.53 0Q226.48 0 224.73 0.18 222.98 0.35 222.48 0.4L222.48 0.4ZM254.73 0.45Q252.98 0.45 251.5 0.15 250.03-0.15 249.15-0.48 248.28-0.8 248.08-0.9L248.08-0.9 247.83-1.35Q247.88-1.6 248-2.48 248.13-3.35 248.25-4.93 248.38-6.5 248.38-8.1L248.38-8.1 250.63-8.3Q250.63-5.6 251.05-4.28 251.48-2.95 252.53-2.45 253.58-1.95 255.73-1.95L255.73-1.95Q258.13-1.95 259.6-3 261.08-4.05 261.08-5.8L261.08-5.8Q261.08-6.95 260.25-7.83 259.43-8.7 258.35-9.3 257.28-9.9 254.93-11.05L254.93-11.05Q251.73-12.6 250-14.1 248.28-15.6 248.28-17.95L248.28-17.95Q248.28-20.05 249.55-21.75 250.83-23.45 253.08-24.4 255.33-25.35 258.08-25.35L258.08-25.35Q259.73-25.35 261.18-25.15 262.63-24.95 263.48-24.73 264.33-24.5 264.53-24.4L264.53-24.4 264.73-24.05Q264.63-23.5 264.28-21.58 263.93-19.65 263.78-17.45L263.78-17.45 261.83-17.25 261.53-17.45Q261.53-17.6 261.58-18.07 261.63-18.55 261.63-19.25L261.63-19.25Q261.63-21.2 260.6-21.98 259.58-22.75 256.98-22.75L256.98-22.75Q254.88-22.75 253.5-21.78 252.13-20.8 252.13-19.3L252.13-19.3Q252.13-17.8 253.5-16.75 254.88-15.7 257.68-14.35L257.68-14.35Q260.13-13.2 261.6-12.35 263.08-11.5 264.13-10.2 265.18-8.9 265.18-7.2L265.18-7.2Q265.18-4.95 263.85-3.23 262.53-1.5 260.15-0.53 257.78 0.45 254.73 0.45L254.73 0.45ZM280.72 0.45L280.97-1.6Q282.87-1.95 283.5-2.63 284.12-3.3 284.12-5L284.12-5 284.17-20.85Q284.17-22.1 283.87-22.53 283.57-22.95 282.67-22.95L282.67-22.95 281.32-22.9 281.22-23.1 281.52-25Q282.12-25 283.87-24.95 285.62-24.9 287.67-24.9L287.67-24.9Q295.42-24.9 299.17-25.35L299.17-25.35 299.37-25.1Q299.27-24.55 298.92-22.55 298.57-20.55 298.42-18.3L298.42-18.3 296.02-18.15Q296.02-18.35 296.07-18.85 296.12-19.35 296.12-19.85L296.12-19.85Q296.12-21.15 295.8-21.68 295.47-22.2 294.42-22.38 293.37-22.55 290.92-22.55L290.92-22.55Q289.57-22.55 289.07-22.48 288.57-22.4 288.42-22.13 288.27-21.85 288.22-21.1L288.22-21.1 287.87-13.35 292.02-13.3Q292.82-13.3 294.32-13.48 295.82-13.65 296.32-13.7L296.32-13.7 296.52-13.45 295.97-10.8Q295.47-10.8 294.02-10.85 292.57-10.9 290.97-10.9L290.97-10.9Q289.57-10.9 287.82-10.65L287.82-10.65 287.67-4.75Q287.67-3.2 288.02-2.68 288.37-2.15 289.47-2.15L289.47-2.15Q290.27-2.15 291.12-2.23 291.97-2.3 292.27-2.3L292.27-2.3 292.42-2.05 292.07 0.15Q291.42 0.1 289.6 0.05 287.77 0 285.87 0L285.87 0Q284.42 0 282.82 0.18 281.22 0.35 280.72 0.45L280.72 0.45ZM303.02 0.4L303.27-1.7Q305.12-1.9 305.77-2.6 306.42-3.3 306.42-5L306.42-5 306.47-20.85Q306.47-22.1 306.17-22.53 305.87-22.95 304.97-22.95L304.97-22.95 303.62-22.9 303.52-23.1 303.82-25Q304.42-25 306.17-24.95 307.92-24.9 309.97-24.9L309.97-24.9Q318.32-24.9 322.32-25.35L322.32-25.35 322.47-25.1Q322.37-24.55 322.02-22.6 321.67-20.65 321.52-18.4L321.52-18.4 319.12-18.2Q319.12-18.4 319.17-18.88 319.22-19.35 319.22-19.85L319.22-19.85Q319.22-21.15 318.84-21.68 318.47-22.2 317.29-22.38 316.12-22.55 313.22-22.55L313.22-22.55Q311.87-22.55 311.37-22.48 310.87-22.4 310.72-22.13 310.57-21.85 310.52-21.1L310.52-21.1 310.22-14 314.32-13.95Q315.22-13.95 316.97-14.13 318.72-14.3 319.27-14.35L319.27-14.35 319.47-14.1 318.87-11.5Q318.32-11.5 316.69-11.55 315.07-11.6 313.27-11.6L313.27-11.6Q311.87-11.6 310.12-11.35L310.12-11.35Q309.97-7.55 309.97-4.5L309.97-4.5Q309.97-3.35 310.14-2.9 310.32-2.45 310.94-2.3 311.57-2.15 313.02-2.15L313.02-2.15Q316.27-2.15 317.67-2.45 319.07-2.75 319.64-3.68 320.22-4.6 320.57-6.85L320.57-6.85 322.77-7.05 322.97-6.8Q322.82-6.25 322.44-4.23 322.07-2.2 321.87 0L321.87 0 321.57 0.25Q320.22 0.2 315.97 0.1 311.72 0 309.07 0L309.07 0Q307.02 0 305.27 0.18 303.52 0.35 303.02 0.4L303.02 0.4ZM335.27 0.45Q333.52 0.45 332.04 0.15 330.57-0.15 329.69-0.48 328.82-0.8 328.62-0.9L328.62-0.9 328.37-1.35Q328.42-1.6 328.54-2.48 328.67-3.35 328.79-4.93 328.92-6.5 328.92-8.1L328.92-8.1 331.17-8.3Q331.17-5.6 331.59-4.28 332.02-2.95 333.07-2.45 334.12-1.95 336.27-1.95L336.27-1.95Q338.67-1.95 340.14-3 341.62-4.05 341.62-5.8L341.62-5.8Q341.62-6.95 340.79-7.83 339.97-8.7 338.89-9.3 337.82-9.9 335.47-11.05L335.47-11.05Q332.27-12.6 330.54-14.1 328.82-15.6 328.82-17.95L328.82-17.95Q328.82-20.05 330.09-21.75 331.37-23.45 333.62-24.4 335.87-25.35 338.62-25.35L338.62-25.35Q340.27-25.35 341.72-25.15 343.17-24.95 344.02-24.73 344.87-24.5 345.07-24.4L345.07-24.4 345.27-24.05Q345.17-23.5 344.82-21.58 344.47-19.65 344.32-17.45L344.32-17.45 342.37-17.25 342.07-17.45Q342.07-17.6 342.12-18.07 342.17-18.55 342.17-19.25L342.17-19.25Q342.17-21.2 341.14-21.98 340.12-22.75 337.52-22.75L337.52-22.75Q335.42-22.75 334.04-21.78 332.67-20.8 332.67-19.3L332.67-19.3Q332.67-17.8 334.04-16.75 335.42-15.7 338.22-14.35L338.22-14.35Q340.67-13.2 342.14-12.35 343.62-11.5 344.67-10.2 345.72-8.9 345.72-7.2L345.72-7.2Q345.72-4.95 344.39-3.23 343.07-1.5 340.69-0.53 338.32 0.45 335.27 0.45L335.27 0.45ZM354.16 0.2L354.51-1.8Q356.51-1.95 357.34-2.3 358.16-2.65 358.39-3.48 358.61-4.3 358.61-6.35L358.61-6.35 358.61-22.9Q355.46-22.8 354.36-22.55 353.26-22.3 352.74-21.38 352.21-20.45 351.86-17.9L351.86-17.9 349.51-17.75Q349.61-18.4 349.84-20.63 350.06-22.85 350.11-25L350.11-25 350.51-25.35 354.06-24.95 366.81-24.95 370.46-25.35 370.86-25Q370.91-22.8 371.11-20.65 371.31-18.5 371.41-17.9L371.41-17.9 369.11-17.75Q368.71-20.35 368.19-21.33 367.66-22.3 366.64-22.55 365.61-22.8 362.71-22.9L362.71-22.9Q362.46-20.5 362.26-14.93 362.06-9.35 362.06-4.65L362.06-4.65Q362.06-3.2 362.61-2.6 363.16-2 364.41-2L364.41-2Q365.31-2 365.89-2.05 366.46-2.1 366.61-2.1L366.61-2.1 366.76-1.95 366.41 0.15Q365.71 0.15 363.81 0.08 361.91 0 360.11 0L360.11 0Q358.31 0 356.56 0.08 354.81 0.15 354.16 0.2L354.16 0.2ZM375.01 0.45L375.26-1.6Q377.16-1.95 377.81-2.63 378.46-3.3 378.46-4.95L378.46-4.95 378.51-20.85Q378.51-22.1 378.21-22.53 377.91-22.95 377.01-22.95L377.01-22.95 375.36-22.9 375.26-23.1 375.51-25Q375.81-25 377.13-24.95 378.46-24.9 380.61-24.9L380.61-24.9Q381.76-24.9 383.44-25.05 385.11-25.2 385.61-25.25L385.61-25.25 385.41-23.2Q383.76-23 383.21-22.58 382.66-22.15 382.56-21L382.56-21Q382.36-17 382.19-12.15 382.01-7.3 382.01-4.65L382.01-4.65Q382.01-3.05 382.36-2.5 382.71-1.95 383.76-1.95L383.76-1.95Q384.46-1.95 385.04-2 385.61-2.05 385.81-2.1L385.81-2.1 385.91-1.9 385.56 0.1Q384.96 0.1 383.31 0.05 381.66 0 380.01 0L380.01 0Q378.66 0 377.09 0.18 375.51 0.35 375.01 0.45L375.01 0.45ZM399.01 0.65Q398.41-1.4 396.28-8.13 394.16-14.85 392.21-20.65L392.21-20.65Q391.86-21.75 390.98-22.3 390.11-22.85 388.61-22.95L388.61-22.95 388.51-23.1 388.81-25Q389.36-25 390.81-24.95 392.26-24.9 393.66-24.9L393.66-24.9Q395.16-24.9 397.26-25.08 399.36-25.25 400.01-25.3L400.01-25.3 400.16-25 400.01-23.2Q397.81-23.05 397.13-22.75 396.46-22.45 396.46-21.65L396.46-21.65Q396.46-20.85 398.48-13.8 400.51-6.75 401.26-4.2L401.26-4.2 401.71-4.2Q403.46-8.4 405.78-14.6 408.11-20.8 408.11-21.6L408.11-21.6Q408.11-22.4 407.51-22.73 406.91-23.05 405.46-23.05L405.46-23.05 403.46-23.05 403.36-23.25 403.61-25.15Q404.16-25.1 405.98-25 407.81-24.9 409.51-24.9L409.51-24.9Q411.06-24.9 412.36-24.95 413.66-25 414.11-25L414.11-25 413.76-22.95Q412.56-22.9 412.08-22.53 411.61-22.15 411.16-21L411.16-21 402.71-0.2 399.01 0.65ZM426.65 0.35L426.5 0.1 426.65-1.7Q428.75-1.85 429.48-2.15 430.2-2.45 430.2-3.15L430.2-3.15Q430.2-3.95 429.85-4.85L429.85-4.85 428.65-8.7Q427.65-8.75 424.5-8.75L424.5-8.75Q423.06-8.75 420.2-8.45L420.2-8.45 418.81-4.75Q418.45-3.6 418.45-3.35L418.45-3.35Q418.45-2.55 419-2.2 419.56-1.85 420.81-1.85L420.81-1.85 422.95-1.85 423.1-1.65 422.81 0.25Q422.31 0.2 420.53 0.1 418.75 0 417.06 0L417.06 0Q415.45 0 414.18 0.05 412.9 0.1 412.45 0.1L412.45 0.1 412.75-1.95Q413.85-2.1 414.5-2.73 415.15-3.35 415.81-4.85L415.81-4.85 423.65-24.7 427.2-25.35 427.56-25.3Q427.56-25.1 429.83-17.4 432.1-9.7 433.9-4.65L433.9-4.65Q434.4-3.2 435.18-2.63 435.95-2.05 437.65-1.9L437.65-1.9 437.75-1.7 437.5 0.1Q437 0.1 435.65 0.05 434.31 0 432.95 0L432.95 0Q430.9 0 429.06 0.15 427.2 0.3 426.65 0.35L426.65 0.35ZM421-10.8L424.4-10.8Q426.15-10.8 428.06-11L428.06-11 425-20.7 424.65-20.7 421-10.8ZM441 0.4L441.3-1.7Q442.9-1.95 443.48-2.63 444.05-3.3 444.05-5L444.05-5 444.1-20.85Q444.1-22.1 443.8-22.53 443.5-22.95 442.6-22.95L442.6-22.95 441.25-22.9 441.1-23.1 441.4-25Q441.65-25 442.9-24.95 444.15-24.9 446.25-24.9L446.25-24.9Q447.35-24.9 448.98-25.05 450.6-25.2 451.1-25.25L451.1-25.25 450.9-23.15Q449.55-23 449-22.68 448.45-22.35 448.35-21.85 448.25-21.35 448.1-19.8L448.1-19.8Q447.6-13.1 447.6-4.95L447.6-4.95Q447.6-3.7 447.83-3.13 448.05-2.55 448.73-2.35 449.4-2.15 450.85-2.15L450.85-2.15Q453.25-2.15 454.38-2.55 455.5-2.95 456.08-4.13 456.65-5.3 457.1-7.85L457.1-7.85 459.3-8.1 459.45-7.8Q459.35-7.15 458.98-4.83 458.6-2.5 458.3 0.05L458.3 0.05 458.05 0.35Q456.9 0.3 453.18 0.15 449.45 0 446.9 0L446.9 0Q444.9 0 443.18 0.18 441.45 0.35 441 0.4L441 0.4Z" opacity="1" transform="matrix(1,0,0,1,0,0)" fill="#f4a424" class="undefined-text-1" data-fill-palette-color="secondary" id="text-1"></path></svg></g></svg></g></svg></g></svg></g><g></g></svg></g><defs></defs></svg><rect width="395.52" height="71.37759800371511" fill="none" stroke="none" visibility="hidden"></rect></g></svg></g></svg>